<svg width="24" height="24" viewBox="0 0 24 24" fill="none" xmlns="http://www.w3.org/2000/svg">
<path d="M17 20V22" stroke="#212121" stroke-width="2" stroke-miterlimit="10" stroke-linecap="square"/>
<path d="M11.5 22H7.00001C5.89544 22 5 21.1046 5 20L5.00001 4C5.00001 2.89543 5.89544 2 7.00001 2H17C18.1046 2 19 2.89543 19 4V7" stroke="#212121" stroke-width="2" stroke-miterlimit="10" stroke-linecap="square"/>
<path d="M13.4397 5.12062H10.5603C10.527 5.12062 10.5 5.09362 10.5 5.06031C10.5 5.027 10.527 5 10.5603 5H13.4397C13.473 5 13.5 5.027 13.5 5.06031C13.5 5.09362 13.473 5.12062 13.4397 5.12062Z" stroke="#212121" stroke-width="2" stroke-miterlimit="10" stroke-linecap="square"/>
<path d="M15 14V11" stroke="#212121" stroke-width="2" stroke-miterlimit="10" stroke-linecap="square"/>
<path d="M19 14V11" stroke="#212121" stroke-width="2" stroke-miterlimit="10" stroke-linecap="square"/>
<path d="M13 14V16C13 18.2091 14.7909 20 17 20C19.2091 20 21 18.2091 21 16V14H13Z" stroke="#212121" stroke-width="2" stroke-miterlimit="10" stroke-linecap="square"/>
</svg>
